Coordinates
version=1
nRows=38
nColumns=12
inDegrees=yes

Units are S.I. units (second, meters, Newtons, ...)
Angles are in degrees

endheader
time	SC_y	SC_z	SC_x	AC_y	AC_z	AC_x	GH_y	GH_z	GH_yy	EL_x	PS_y
       0.0              -40.01          17.82          1.686          66.83         -1.321          17.29         -66.15          10.78          52.96          81.75           94.0
  0.002271              -40.01          17.82          1.695          66.82         -1.322          17.29         -66.12          10.79          52.96          81.75          93.99
  0.004542              -40.01          17.82          1.706          66.82         -1.324          17.29         -66.08           10.8          52.97          81.75          93.99
  0.006814              -40.01          17.83          1.717          66.81         -1.326          17.28         -66.04          10.81          52.98          81.75          93.98
  0.009085              -40.02          17.83          1.728          66.81         -1.328          17.28          -66.0          10.82          52.98          81.75          93.97
   0.01136              -40.02          17.83           1.74           66.8          -1.33          17.28         -65.96          10.83          52.99          81.75          93.96
   0.01363              -40.02          17.84          1.754           66.8         -1.332          17.28         -65.91          10.85           53.0          81.75          93.95
    0.0159              -40.02          17.84          1.768          66.79         -1.335          17.28         -65.86          10.86          53.01          81.75          93.94
   0.01817              -40.03          17.85          1.783          66.78         -1.337          17.28          -65.8          10.88          53.01          81.74          93.93
   0.02044              -40.03          17.85          1.799          66.78          -1.34          17.28         -65.74           10.9          53.02          81.74          93.92
   0.02271              -40.04          17.86          1.816          66.77         -1.343          17.28         -65.68          10.91          53.03          81.74          93.91
   0.02498              -40.04          17.86          1.835          66.76         -1.346          17.28         -65.61          10.93          53.04          81.74           93.9
   0.02725              -40.05          17.87          1.855          66.75          -1.35          17.27         -65.54          10.95          53.05          81.74          93.88
   0.02953              -40.05          17.87          1.877          66.74         -1.353          17.27         -65.46          10.98          53.07          81.74          93.87
    0.0318              -40.06          17.88          1.901          66.73         -1.357          17.27         -65.38           11.0          53.08          81.74          93.85
   0.03407              -40.06          17.89          1.926          66.72         -1.362          17.27         -65.28          11.03           53.1          81.74          93.83
   0.03634              -40.07           17.9          1.954          66.71         -1.366          17.27         -65.18          11.06          53.11          81.73          93.81
   0.03861              -40.08           17.9          1.984          66.69         -1.372          17.26         -65.07          11.09          53.13          81.73          93.79
   0.04088              -40.09          17.91          2.017          66.68         -1.377          17.26         -64.95          11.13          53.15          81.73          93.77
   0.04315              -40.09          17.92          2.054          66.66         -1.383          17.26         -64.82          11.16          53.17          81.73          93.74
   0.04542               -40.1          17.94          2.093          66.65          -1.39          17.25         -64.68          11.21          53.19          81.73          93.71
    0.0477              -40.11          17.95          2.137          66.63         -1.398          17.25         -64.52          11.25          53.21          81.72          93.68
   0.04997              -40.13          17.96          2.185           66.6         -1.406          17.25         -64.34           11.3          53.24          81.72          93.65
   0.05224              -40.14          17.98          2.239          66.58         -1.415          17.24         -64.15          11.36          53.27          81.72          93.61
   0.05451              -40.15           18.0          2.298          66.55         -1.425          17.24         -63.94          11.42          53.31          81.71          93.57
   0.05678              -40.17          18.02          2.365          66.53         -1.437          17.23          -63.7          11.49          53.34          81.71          93.52
   0.05905              -40.19          18.04          2.439          66.49         -1.449          17.23         -63.43          11.57          53.39           81.7          93.47
   0.06132              -40.21          18.06          2.523          66.46         -1.464          17.22         -63.12          11.66          53.43           81.7          93.41
   0.06359              -40.23          18.09          2.617          66.41          -1.48          17.21         -62.78          11.76          53.49          81.69          93.34
   0.06587              -40.26          18.12          2.725          66.37         -1.498           17.2         -62.39          11.87          53.55          81.69          93.27
   0.06814              -40.29          18.16          2.847          66.31         -1.519          17.19         -61.95           12.0          53.62          81.68          93.18
   0.07041              -40.32           18.2          2.988          66.25         -1.543          17.18         -61.44          12.15           53.7          81.67          93.08
   0.07268              -40.36          18.25           3.15          66.18         -1.571          17.17         -60.85          12.32          53.79          81.66          92.97
   0.07495               -40.4           18.3          3.339          66.09         -1.603          17.15         -60.17          12.52           53.9          81.65          92.83
   0.07722              -40.46          18.37           3.56          65.99         -1.641          17.14         -59.37          12.75          54.02          81.64          92.68
   0.07949              -40.52          18.44           3.82          65.88         -1.686          17.12         -58.43          13.03          54.17          81.62           92.5
   0.08176              -40.59          18.54          4.129          65.74         -1.738          17.09         -57.31          13.36          54.34           81.6          92.28
   0.08404              -40.68          18.64            4.5          65.58         -1.802          17.06         -55.97          13.75          54.55          81.58          92.02
